HIERARCHY
ROOT Hips
{
 OFFSET 0.000000 0.000000 0.000000
 CHANNELS 6 Xposition Yposition Zposition Yrotation Xrotation Zrotation
 JOINT Chest
 {
  OFFSET 0.000000 9.585900 0.002600
  CHANNELS 3 Yrotation Xrotation Zrotation
  JOINT Chest2
  {
   OFFSET 0.000000 9.601200 -0.005300
   CHANNELS 3 Yrotation Xrotation Zrotation
   JOINT Chest3
   {
    OFFSET 0.000000 9.561800 0.000000
    CHANNELS 3 Yrotation Xrotation Zrotation
    JOINT Chest4
    {
     OFFSET 0.000000 9.552100 0.000000
     CHANNELS 3 Yrotation Xrotation Zrotation
     JOINT Neck
     {
      OFFSET 0.000000 14.453000 0.000000
      CHANNELS 3 Yrotation Xrotation Zrotation
      JOINT Head
      {
       OFFSET 0.000000 8.936500 -0.011300
       CHANNELS 3 Yrotation Xrotation Zrotation
       End Site
       {
        OFFSET 0.000000 17.073600 -0.006000
       }
      }
     }
     JOINT RightCollar
     {
      OFFSET -2.921100 9.558500 0.000000
      CHANNELS 3 Yrotation Xrotation Zrotation
      JOINT RightShoulder
      {
       OFFSET -13.519700 0.000000 0.000000
       CHANNELS 3 Yrotation Xrotation Zrotation
       JOINT RightElbow
       {
        OFFSET 0.000000 -29.696600 0.000000
        CHANNELS 3 Yrotation Xrotation Zrotation
        JOINT RightWrist
        {
         OFFSET 0.000000 -24.004700 0.000000
         CHANNELS 3 Yrotation Xrotation Zrotation
         End Site
         {
          OFFSET 0.000000 -17.728500 0.000000
         }
        }
       }
      }
     }
     JOINT LeftCollar
     {
      OFFSET 2.921100 9.558500 0.000000
      CHANNELS 3 Yrotation Xrotation Zrotation
      JOINT LeftShoulder
      {
       OFFSET 13.519700 0.000000 0.000000
       CHANNELS 3 Yrotation Xrotation Zrotation
       JOINT LeftElbow
       {
        OFFSET 0.000000 -29.696600 0.000000
        CHANNELS 3 Yrotation Xrotation Zrotation
        JOINT LeftWrist
        {
         OFFSET 0.000000 -24.004700 0.000000
         CHANNELS 3 Yrotation Xrotation Zrotation
         End Site
         {
          OFFSET 0.000000 -17.728500 0.000000
         }
        }
       }
      }
     }
    }
   }
  }
 }
 JOINT RightHip
 {
  OFFSET -7.771700 -0.012900 -0.001300
  CHANNELS 3 Yrotation Xrotation Zrotation
  JOINT RightKnee
  {
   OFFSET 0.000000 -40.869800 0.001200
   CHANNELS 3 Yrotation Xrotation Zrotation
   JOINT RightAnkle
   {
    OFFSET 0.000000 -39.717900 0.002100
    CHANNELS 3 Yrotation Xrotation Zrotation
    JOINT RightToe
    {
     OFFSET 0.000000 -4.965400 11.033500
     CHANNELS 3 Yrotation Xrotation Zrotation
     End Site
     {
      OFFSET 0.000000 -1.423100 5.872300
     }
    }
   }
  }
 }
 JOINT LeftHip
 {
  OFFSET 7.771700 -0.012900 -0.001300
  CHANNELS 3 Yrotation Xrotation Zrotation
  JOINT LeftKnee
  {
   OFFSET 0.000000 -40.869800 0.001200
   CHANNELS 3 Yrotation Xrotation Zrotation
   JOINT LeftAnkle
   {
    OFFSET 0.000000 -39.717900 0.002100
    CHANNELS 3 Yrotation Xrotation Zrotation
    JOINT LeftToe
    {
     OFFSET 0.000000 -4.965400 11.033500
     CHANNELS 3 Yrotation Xrotation Zrotation
     End Site
     {
      OFFSET 0.000000 -1.423100 5.872300
     }
    }
   }
  }
 }
}
MOTION
Frames: 11
Frame Time: 0.008333
0.000000 85.388000 0.000000 0.000000 -5.767877 0.000000 0.000000 11.653817 0.000000 0.000000 -5.885947 0.000000 0.000000 -0.000000 0.000000 0.000000 -0.000000 0.000000 0.000000 12.528835 0.000000 0.000000 0.711642 0.000000 0.000000 -0.000000 0.000000 0.000000 0.000000 -90.000000 0.000000 -2.309062 0.000000 0.000000 2.309062 0.000000 0.000000 -0.000000 0.000000 0.000000 -0.000000 90.000000 0.000000 -2.309062 0.000000 0.000000 2.309062 0.000000 0.000000 8.520406 0.000000 0.000000 1.905762 0.000000 -0.000000 -4.658285 0.000000 0.000000 -0.000000 0.000000 0.000000 8.520406 0.000000 0.000000 1.905762 0.000000 -0.000000 -4.658285 0.000000 0.000000 -0.000000 0.000000
-23.138296 62.169116 12.130256 176.345383 -51.925367 -1.135018 4.471810 26.581178 0.934324 0.655196 4.486864 0.116880 1.046563 7.119798 0.210093 3.382226 21.595514 1.096475 2.018023 16.171055 3.372206 2.553982 -5.812249 5.557954 2.915847 6.064459 3.842557 -7.001041 -7.725588 -11.836670 -126.733437 -58.887589 160.169185 12.434875 1.499076 -13.965022 -6.245418 3.150768 2.873259 4.560842 -5.379220 11.429089 168.844933 -70.992526 173.227534 9.226414 -3.505152 1.355809 2.535533 -14.943756 -5.035067 -1.702852 61.010538 -5.370850 1.599601 -6.741362 10.563292 0.210334 -0.741234 0.037809 -3.534075 -12.146634 2.925856 25.847277 76.652996 26.162963 0.706535 -11.474722 -3.315933 0.286779 0.660107 0.126691
-23.138844 62.167297 12.131563 176.335871 -51.889207 -1.141265 4.483296 26.596312 0.932652 0.656692 4.492285 0.115212 1.048746 7.127877 0.207383 3.385433 21.547609 1.103846 1.961737 16.167502 3.349092 2.459405 -5.925621 5.560316 2.914633 6.096357 3.820470 -7.008485 -7.699836 -11.832566 -126.728421 -58.894482 160.161537 12.421479 1.572028 -13.974042 -6.273913 3.164714 2.825427 4.492328 -5.434258 11.486847 168.755865 -70.985371 173.310903 9.213916 -3.489627 1.469137 2.533237 -14.976904 -5.025224 -1.708709 60.988923 -5.378937 1.620555 -6.676786 10.579530 0.205501 -0.747383 0.032171 -3.531661 -12.183964 2.946435 25.852879 76.657122 26.166898 0.701016 -11.478827 -3.312859 0.292259 0.662945 0.127569
-23.140830 62.165117 12.132991 176.320351 -51.847505 -1.136690 4.495713 26.592926 0.929178 0.658650 4.510337 0.111429 1.049998 7.120724 0.207909 3.389171 21.630307 1.078311 1.917319 16.048995 3.354948 2.367901 -6.037851 5.561730 2.916586 5.985794 3.835780 -7.013516 -7.685754 -11.830185 -126.620497 -58.983960 160.053576 12.429867 1.508088 -13.985957 -6.285616 3.052172 2.847967 4.458098 -5.461198 11.515932 168.630607 -70.968520 173.379346 9.201646 -3.483166 1.582205 2.535726 -15.009333 -5.021884 -1.716747 60.960327 -5.388425 1.636740 -6.628149 10.585013 0.199918 -0.717282 0.042190 -3.526458 -12.227461 2.961424 25.844632 76.664051 26.154516 0.697902 -11.482894 -3.309871 0.299025 0.664021 0.129546
-23.141315 62.164621 12.133181 176.323876 -51.816574 -1.157485 4.501165 26.573662 0.943897 0.660598 4.539249 0.105785 1.049743 7.095585 0.212228 3.393085 21.707704 1.061946 1.871053 15.968636 3.350308 2.281567 -6.148482 5.562585 2.914757 5.914710 3.838845 -7.026980 -7.616353 -11.840823 -126.613528 -58.988974 160.057061 12.441942 1.449377 -13.993135 -6.300253 2.976419 2.852374 4.422767 -5.486455 11.545278 168.585441 -70.970842 173.418896 9.304391 -3.497790 1.625489 2.527690 -15.048855 -5.007907 -1.729307 60.948747 -5.402194 1.657160 -6.487261 10.622723 0.203314 -0.757787 0.025711 -3.536109 -12.258071 2.986326 25.830637 76.670222 26.136009 0.698879 -11.488534 -3.304366 0.304022 0.666625 0.128378
-23.142068 62.163679 12.133649 176.325911 -51.781867 -1.177167 4.510340 26.587357 0.952588 0.659799 4.503150 0.112576 1.053329 7.144127 0.203330 3.392276 21.718848 1.056627 1.839821 15.905076 3.346997 2.190098 -6.254472 5.561457 2.904036 5.930027 3.804035 -7.027160 -7.625905 -11.802522 -126.652594 -58.962996 160.106452 12.440194 1.448971 -13.995591 -6.326099 2.937157 2.826914 4.352934 -5.532883 11.606050 168.557299 -70.986778 173.489813 9.362657 -3.495346 1.627065 2.515774 -15.086096 -4.995749 -1.734926 60.928847 -5.409198 1.677179 -6.363529 10.654078 0.203347 -0.788381 0.011311 -3.545564 -12.292700 3.012846 25.816222 76.675976 26.116428 0.695441 -11.492822 -3.300650 0.307051 0.668650 0.129232
-23.144021 62.161769 12.134719 176.317361 -51.740549 -1.182916 4.522045 26.619747 0.948073 0.661173 4.484129 0.116925 1.054242 7.184002 0.195291 3.394020 21.696317 1.054272 1.835186 15.834181 3.354916 2.082369 -6.351073 5.557046 2.903120 5.898588 3.796588 -7.024950 -7.647674 -11.782748 -126.567440 -59.024767 160.031469 12.422320 1.484692 -14.019309 -6.370169 2.926976 2.765578 4.302281 -5.600137 11.706273 168.449100 -70.991354 173.586040 9.368494 -3.487071 1.659038 2.506553 -15.118293 -4.994714 -1.731886 60.895812 -5.404643 1.702154 -6.290902 10.666400 0.190304 -0.763330 0.013934 -3.551131 -12.335434 3.033336 25.811734 76.681783 26.104851 0.688733 -11.494067 -3.298233 0.309188 0.667594 0.131017
-23.145900 62.161932 12.134101 176.300323 -51.716124 -1.182918 4.533650 26.656894 0.941346 0.661275 4.532008 0.105078 1.063349 7.104245 0.215218 3.393555 21.736965 1.041702 1.794032 15.777277 3.349527 2.017203 -6.453072 5.556991 2.905132 5.846847 3.800773 -7.034265 -7.596438 -11.786421 -126.551972 -59.038654 160.031892 12.422016 1.483405 -14.024641 -6.384675 2.889181 2.747569 4.230348 -5.638919 11.768815 168.257191 -71.002665 173.680961 9.313856 -3.495095 1.792755 2.505794 -15.136556 -4.989632 -1.755516 60.869360 -5.425999 1.732470 -6.212797 10.683062 0.180291 -0.747114 0.017667 -3.548157 -12.359671 3.050425 25.819390 76.690340 26.107614 0.689665 -11.497328 -3.293624 0.304943 0.663186 0.129569
-23.148721 62.162638 12.132925 176.298717 -51.696786 -1.190085 4.531584 26.699460 0.927831 0.664752 4.523251 0.107882 1.064576 7.115011 0.211526 3.397727 21.739528 1.036583 1.761728 15.726610 3.343565 1.953161 -6.551703 5.559788 2.907868 5.798385 3.806217 -7.037594 -7.547933 -11.789374 -126.564099 -59.037233 160.051535 12.421310 1.484848 -14.021789 -6.395604 2.857104 2.731698 4.093360 -5.654849 11.847094 168.185836 -71.013123 173.771277 9.313196 -3.484158 1.786303 2.495066 -15.155511 -4.991565 -1.753873 60.854994 -5.425503 1.750190 -6.121923 10.711165 0.178869 -0.768469 0.004617 -3.553205 -12.379180 3.062583 25.824391 76.695503 26.107833 0.687020 -11.495065 -3.292779 0.307924 0.657026 0.132007
-23.151490 62.161275 12.133389 176.295049 -51.662395 -1.197212 4.533247 26.712996 0.922344 0.665140 4.526691 0.106344 1.067665 7.121810 0.207720 3.395134 21.744422 1.030655 1.730877 15.676559 3.334428 1.897654 -6.640880 5.565377 2.915629 5.817769 3.787569 -7.040351 -7.565339 -11.765549 -126.587037 -59.021485 160.078106 12.415448 1.499143 -14.017566 -6.397054 2.819372 2.725295 3.999378 -5.657785 11.903280 168.133770 -71.019321 173.819255 9.317235 -3.461086 1.734678 2.481481 -15.190881 -4.991126 -1.756308 60.841653 -5.431041 1.764082 -6.046741 10.735841 0.190449 -0.811413 -0.015767 -3.557141 -12.416023 3.076820 25.836646 76.703471 26.118775 0.680180 -11.498044 -3.296258 0.315615 0.654935 0.136090
-23.151978 62.156411 12.136874 176.280748 -51.601433 -1.211206 4.547114 26.697848 0.933232 0.665275 4.529654 0.104839 1.061333 7.183439 0.191315 3.403819 21.692338 1.033351 1.669019 15.643126 3.316535 1.880387 -6.735719 5.570975 2.930704 5.799869 3.784454 -7.069588 -7.492203 -11.770092 -126.700626 -58.940985 160.215734 12.403918 1.539099 -14.011005 -6.388250 2.767661 2.735372 3.919350 -5.640481 11.935439 168.083009 -71.029119 173.846387 9.308003 -3.444189 1.695470 2.465290 -15.256408 -4.974808 -1.789576 60.824017 -5.465854 1.796348 -5.979320 10.761402 0.162321 -0.745955 -0.006530 -3.558406 -12.481039 3.107654 25.819210 76.721016 26.107217 0.683709 -11.516401 -3.307758 0.326180 0.664611 0.142751
